PathFileType	4	(X/Y/Z)	D:\TRACE\spotREDO_2-26-24\spot_justArm_Motion_1_5-v60.trc
DataRate	CameraRate	NumFrames	NumMarkers	Units	OrigDataRate	OrigDataStartFrame	OrigNumFrames
100.00	100.00	      14	9	mm	100.00	876	      7000
Frame#	Time	front left toe			Front right toe			aft left toe			aft right toe			Arm			FL body			FR body			AL Body			AR Body			
		X1	Y1	Z1	X2	Y2	Z2	X3	Y3	Z3	X4	Y4	Z4	X5	Y5	Z5	X6	Y6	Z6	X7	Y7	Z7	X8	Y8	Z8	X9	Y9	Z9	

876	8.750	-195.43324	18.24267	-159.46558	233.43791	21.26729	-139.13930	-215.71895	20.20992	462.93317	201.88066	26.00895	419.71332	-64.72083	738.07257	-765.21399	-65.97944	554.36328	-219.98303	89.81649	556.53174	-215.96573	-94.36148	554.92053	662.66260	52.15536	553.90649	668.91827	
877	8.760	-194.51666	18.10281	-159.59874	234.16579	21.11224	-139.07672	-215.05412	20.82994	462.73996	202.28232	26.20881	419.64557	-63.95044	737.93652	-765.79120	-64.81308	554.13135	-220.15257	91.20735	556.49164	-216.12738	-93.95509	555.44818	662.70398	53.04158	554.24255	668.83325	
878	8.770	-193.72971	18.28807	-159.59036	235.20108	21.15448	-138.97696	-214.24205	20.90909	462.90942	203.44299	26.58299	419.76907	-63.15526	737.91010	-765.44165	-63.64275	554.09155	-220.37483	92.37001	556.26355	-216.46413	-93.24433	555.75153	662.64630	54.26503	554.46674	668.78748	
879	8.780	-193.08054	18.21539	-159.87172	235.79816	21.27944	-139.16669	-213.51495	21.16712	462.74078	204.23151	26.82648	419.61621	-62.44701	737.75024	-765.39209	-62.25444	553.74371	-220.47189	93.48843	556.00513	-216.55809	-92.14941	556.08466	662.61383	55.43978	554.79559	668.94366	
880	8.790	-192.37665	17.93786	-159.95461	236.28119	20.78153	-139.30493	-212.70689	21.29729	462.56714	204.60201	26.96986	419.57916	-61.61019	737.64545	-765.30731	-61.14079	553.57977	-220.85655	94.79483	555.73633	-216.68071	-91.51330	556.37933	662.39337	56.00381	555.15900	668.55743	
881	8.800	-191.50958	17.85546	-159.85538	237.23582	20.56068	-139.31548	-212.04327	21.49561	462.56876	205.18382	27.21641	419.51089	-61.06091	737.58319	-765.49652	-60.01104	553.26764	-220.82719	95.75252	555.46295	-216.69725	-90.54370	556.89349	662.19452	57.16029	555.29822	668.47211	
882	8.810	-190.75372	17.66468	-159.91893	237.80371	20.48781	-139.37817	-211.73940	21.69948	462.40768	206.45558	27.61780	419.59009	-60.11509	737.30933	-765.33929	-58.83470	553.06427	-220.92502	97.14310	555.01874	-216.94507	-89.27044	557.25153	661.93677	58.16644	555.60980	668.25464	
883	8.820	-190.14461	17.81438	-160.11107	238.80061	20.52653	-139.51611	-210.81969	22.16875	462.32791	206.90065	27.63568	419.44424	-59.67842	737.29242	-765.83289	-57.76761	552.75446	-221.17621	98.14504	554.79413	-217.10455	-88.83434	557.72864	661.91937	59.38042	556.17267	668.18036	
884	8.830	-189.30139	17.77704	-160.15001	239.20154	20.55730	-139.58488	-210.02135	22.52224	462.41611	207.10330	27.65771	419.14240	-59.54517	737.35248	-765.98517	-56.70327	552.49963	-221.40411	99.40847	554.57874	-217.04959	-87.50349	558.02765	661.94226	60.10692	556.45459	667.97266	
885	8.840	-188.70050	17.68622	-160.26720	239.94824	20.55883	-139.50189	-209.33685	22.55405	462.29028	208.42058	27.98691	419.14542	-58.95487	737.32794	-766.24152	-55.48025	552.08142	-221.40227	100.57881	554.35413	-217.22963	-86.58330	558.38965	661.68903	61.43581	556.82446	667.85321	
886	8.850	-188.14998	17.59113	-160.43501	240.56314	20.61874	-139.27049	-208.69762	22.89891	462.18259	209.29288	28.26820	419.21524	-58.44523	737.31073	-766.39941	-54.05048	551.71527	-221.30536	101.60340	554.22949	-217.36522	-85.61364	558.87830	661.80389	62.46490	557.18213	667.78265	
887	8.860	-187.55862	17.65561	-160.48387	241.09123	19.75595	-139.70874	-208.00754	23.18062	462.04648	209.62422	28.24305	419.17719	-57.89723	737.19000	-766.61371	-53.18835	551.59070	-221.58560	102.99605	553.83221	-217.44479	-84.48590	559.33429	661.55682	63.43664	557.67859	667.70428	
888	8.870	-187.04395	17.64926	-160.67696	241.82617	19.69177	-139.77390	-207.61839	23.54900	461.69757	209.98579	28.28496	419.04755	-57.64174	737.13110	-766.79645	-52.14080	551.44269	-221.80014	104.10394	553.79016	-217.53490	-83.42473	559.66235	661.44836	64.60862	558.15680	667.52313	
889	8.880	-186.38828	17.40310	-160.81937	242.62157	19.74498	-139.69398	-207.13861	23.84190	461.63190	210.45840	28.51557	418.88828	-56.89648	736.97150	-766.65497	-50.87968	551.16449	-221.81458	104.99632	553.71680	-217.74950	-82.52924	560.01910	661.30225	65.68550	558.44672	667.38190	
